<svg xmlns="http://www.w3.org/2000/svg" width="600" height="600" viewBox="0 0 158.75 158.75" version="1.1" id="svg8"><g id="layer1" transform="translate(0 -138.25)"><g id="g72386" transform="matrix(2.00472 0 0 2.38612 -57.135 -289.39)" fill="#333" fill-opacity="1"><ellipse transform="matrix(.92078 -.39007 .47334 .88088 0 0)" cx="-61.701" cy="206.862" rx="7.802" ry="10.69" id="path72318" fill-rule="nonzero" stroke="none" stroke-width="0" stroke-linecap="round" stroke-miterlimit="4" stroke-dasharray="none" stroke-dashoffset="0" stroke-opacity="1" paint-order="fill markers stroke"/><ellipse transform="matrix(.9965 -.08363 .19364 .98107 0 0)" cx="17.702" cy="198.243" rx="8.817" ry="11.018" id="path72318-4" fill-rule="nonzero" stroke="none" stroke-width="0" stroke-linecap="round" stroke-miterlimit="4" stroke-dasharray="none" stroke-dashoffset="0" stroke-opacity="1" paint-order="fill markers stroke"/><ellipse transform="matrix(.99288 .1191 -.2302 .97314 0 0)" cx="120.82" cy="183.039" rx="9.231" ry="11.549" id="path72318-5" fill-rule="nonzero" stroke="none" stroke-width="0" stroke-linecap="round" stroke-miterlimit="4" stroke-dasharray="none" stroke-dashoffset="0" stroke-opacity="1" paint-order="fill markers stroke"/><ellipse transform="matrix(.9902 .13968 -.37512 .92698 0 0)" cx="169.639" cy="191.792" rx="7.169" ry="8.876" id="path72318-5-2" fill-rule="nonzero" stroke="none" stroke-width="0" stroke-linecap="round" stroke-miterlimit="4" stroke-dasharray="none" stroke-dashoffset="0" stroke-opacity="1" paint-order="fill markers stroke"/><path id="path72379" d="M67.815 208.339c8.05-1.71 30.595 13.83 30.437 19.498-.227 8.142-7.746 9.034-16.01 8.114-4.991-.555-5.684-1.445-10.542-.175-4.77 1.247-9.908 4.29-9.908 4.29-4.56 2.837-11.155 6.714-14.505-.163-5.607-11.51 12.73-29.908 20.528-31.564z" fill-rule="evenodd" stroke-width="3.219"/></g></g></svg>